<svg width="942" height="480" viewBox="0 0 942 480" fill="none" xmlns="http://www.w3.org/2000/svg">
<path d="M879.625 371.104C932.547 231.519 929.111 14.8325 713.015 1.54184C642.338 -2.80599 570.426 19.8202 504.844 40.4688C450.542 57.5657 380.926 82.6857 363.997 136.597C357.348 157.762 355.433 196.366 320.729 194.148C228.526 188.262 121.388 135.369 60.0135 226.637C7.26522 305.072 43.6149 417.287 116.19 480H796.761C832.327 450.125 862.509 416.244 879.625 371.104Z" fill="#EAF0FF"/>
<g clip-path="url(#clip0_1077:5883)">
<path d="M173.547 242.461C188.911 242.461 201.367 230.012 201.367 214.657C201.367 199.301 188.911 186.853 173.547 186.853C158.182 186.853 145.726 199.301 145.726 214.657C145.726 230.012 158.182 242.461 173.547 242.461Z" fill="white"/>
<path d="M165.447 219.8C163.959 219.8 162.61 219.48 161.401 218.841C160.205 218.187 159.259 217.29 158.564 216.15C157.882 214.995 157.541 213.695 157.541 212.249C157.541 210.803 157.882 209.509 158.564 208.369C159.259 207.215 160.205 206.318 161.401 205.678C162.61 205.024 163.966 204.697 165.468 204.697C166.734 204.697 167.874 204.92 168.889 205.365C169.918 205.81 170.781 206.45 171.476 207.284L169.306 209.287C168.319 208.146 167.095 207.576 165.635 207.576C164.731 207.576 163.925 207.778 163.215 208.181C162.506 208.57 161.95 209.12 161.547 209.829C161.157 210.538 160.962 211.345 160.962 212.249C160.962 213.153 161.157 213.959 161.547 214.669C161.95 215.378 162.506 215.934 163.215 216.337C163.925 216.727 164.731 216.921 165.635 216.921C167.095 216.921 168.319 216.344 169.306 215.19L171.476 217.193C170.781 218.041 169.918 218.688 168.889 219.133C167.86 219.578 166.713 219.8 165.447 219.8ZM174.596 212.228C174.026 212.228 173.546 212.033 173.157 211.644C172.768 211.254 172.573 210.768 172.573 210.184C172.573 209.586 172.768 209.106 173.157 208.744C173.546 208.369 174.026 208.181 174.596 208.181C175.166 208.181 175.646 208.369 176.036 208.744C176.425 209.106 176.62 209.586 176.62 210.184C176.62 210.768 176.425 211.254 176.036 211.644C175.646 212.033 175.166 212.228 174.596 212.228ZM174.596 219.717C174.026 219.717 173.546 219.522 173.157 219.133C172.768 218.743 172.573 218.256 172.573 217.672C172.573 217.074 172.768 216.595 173.157 216.233C173.546 215.858 174.026 215.67 174.596 215.67C175.166 215.67 175.646 215.858 176.036 216.233C176.425 216.595 176.62 217.074 176.62 217.672C176.62 218.256 176.425 218.743 176.036 219.133C175.646 219.522 175.166 219.717 174.596 219.717ZM184.619 201.986H187.518L180.634 221.636H177.735L184.619 201.986Z" fill="#B4CFFE"/>
<path d="M298.133 88.2908C313.497 88.2908 325.953 75.8425 325.953 60.4867C325.953 45.1309 313.497 32.6826 298.133 32.6826C282.768 32.6826 270.312 45.1309 270.312 60.4867C270.312 75.8425 282.768 88.2908 298.133 88.2908Z" fill="white"/>
<path d="M291.594 54.8279L284.648 57.3728L291.594 59.8969V62.5044L281.665 58.7287V56.0169L291.594 52.2413V54.8279ZM298.846 66.7598L291.962 47.1097H294.861L301.745 66.7598H298.846ZM312.25 56.0169V58.7287L302.321 62.5044V59.8969L309.267 57.3728L302.321 54.8279V52.2413L312.25 56.0169Z" fill="#B4CFFE"/>
<path d="M797.099 286.217C812.464 286.217 824.919 273.768 824.919 258.413C824.919 243.057 812.464 230.608 797.099 230.608C781.734 230.608 769.279 243.057 769.279 258.413C769.279 273.768 781.734 286.217 797.099 286.217Z" fill="white"/>
<path d="M785.529 254.548C785.529 255.257 785.418 255.785 785.195 256.133C784.973 256.481 784.618 256.731 784.131 256.884C784.618 257.037 784.973 257.287 785.195 257.635C785.418 257.983 785.529 258.511 785.529 259.22V262.558C785.529 263.059 785.654 263.441 785.904 263.705C786.169 263.969 786.551 264.102 787.052 264.102H787.427V266.646H786.217C784.924 266.646 783.944 266.327 783.276 265.687C782.609 265.047 782.275 264.122 782.275 262.913V259.137C782.275 258.817 782.191 258.574 782.024 258.407C781.872 258.24 781.649 258.156 781.357 258.156H780.669V255.612H781.357C781.649 255.612 781.872 255.528 782.024 255.361C782.191 255.194 782.275 254.951 782.275 254.631V250.855C782.275 249.646 782.609 248.721 783.276 248.081C783.944 247.441 784.924 247.121 786.217 247.121H787.427V249.666H787.052C786.551 249.666 786.169 249.799 785.904 250.063C785.654 250.327 785.529 250.709 785.529 251.21V254.548ZM790.465 262.766C789.895 262.766 789.415 262.572 789.026 262.182C788.636 261.793 788.442 261.306 788.442 260.722C788.442 260.124 788.636 259.644 789.026 259.283C789.415 258.907 789.895 258.72 790.465 258.72C791.035 258.72 791.515 258.907 791.904 259.283C792.294 259.644 792.488 260.124 792.488 260.722C792.488 261.306 792.294 261.793 791.904 262.182C791.515 262.572 791.035 262.766 790.465 262.766ZM795.924 262.766C795.354 262.766 794.874 262.572 794.485 262.182C794.096 261.793 793.901 261.306 793.901 260.722C793.901 260.124 794.096 259.644 794.485 259.283C794.874 258.907 795.354 258.72 795.924 258.72C796.495 258.72 796.974 258.907 797.364 259.283C797.753 259.644 797.948 260.124 797.948 260.722C797.948 261.306 797.753 261.793 797.364 262.182C796.974 262.572 796.495 262.766 795.924 262.766ZM801.384 262.766C800.814 262.766 800.334 262.572 799.945 262.182C799.555 261.793 799.36 261.306 799.36 260.722C799.36 260.124 799.555 259.644 799.945 259.283C800.334 258.907 800.814 258.72 801.384 258.72C801.954 258.72 802.434 258.907 802.823 259.283C803.213 259.644 803.407 260.124 803.407 260.722C803.407 261.306 803.213 261.793 802.823 262.182C802.434 262.572 801.954 262.766 801.384 262.766ZM811.182 255.612V258.156H810.494C810.202 258.156 809.972 258.24 809.805 258.407C809.652 258.574 809.576 258.817 809.576 259.137V262.913C809.576 264.122 809.242 265.047 808.575 265.687C807.907 266.327 806.927 266.646 805.633 266.646H804.424V264.102H804.799C805.3 264.102 805.675 263.969 805.925 263.705C806.19 263.441 806.322 263.059 806.322 262.558V259.22C806.322 258.511 806.433 257.983 806.656 257.635C806.878 257.287 807.233 257.037 807.719 256.884C807.233 256.731 806.878 256.481 806.656 256.133C806.433 255.785 806.322 255.257 806.322 254.548V251.21C806.322 250.709 806.19 250.327 805.925 250.063C805.675 249.799 805.3 249.666 804.799 249.666H804.424V247.121H805.633C806.927 247.121 807.907 247.441 808.575 248.081C809.242 248.721 809.576 249.646 809.576 250.855V254.631C809.576 254.951 809.652 255.194 809.805 255.361C809.972 255.528 810.202 255.612 810.494 255.612H811.182Z" fill="#B4CFFE"/>
<path d="M622.242 82.1641C625.735 78.6729 625.735 73.0126 622.242 69.5214C618.749 66.0303 613.085 66.0303 609.592 69.5214C606.099 73.0126 606.099 78.6729 609.592 82.1641C613.085 85.6553 618.749 85.6553 622.242 82.1641Z" fill="white"/>
<path d="M190.568 437.72C193.913 434.087 193.678 428.432 190.042 425.088C186.407 421.745 180.748 421.98 177.403 425.614C174.058 429.247 174.293 434.902 177.929 438.245C181.564 441.588 187.223 441.353 190.568 437.72Z" fill="white"/>
<path d="M260.982 152.282C267.034 152.282 271.941 147.378 271.941 141.329C271.941 135.281 267.034 130.377 260.982 130.377C254.929 130.377 250.023 135.281 250.023 141.329C250.023 147.378 254.929 152.282 260.982 152.282Z" fill="#B4CFFE"/>
<path d="M556.903 54.2449C566.642 54.2449 574.536 46.3551 574.536 36.6225C574.536 26.8898 566.642 19 556.903 19C547.165 19 539.271 26.8898 539.271 36.6225C539.271 46.3551 547.165 54.2449 556.903 54.2449Z" fill="#B4CFFE"/>
<path d="M720.783 255.254C725.717 255.254 729.717 251.305 729.717 246.432C729.717 241.56 725.717 237.61 720.783 237.61C715.849 237.61 711.849 241.56 711.849 246.432C711.849 251.305 715.849 255.254 720.783 255.254Z" fill="#B4CFFE"/>
<path d="M781.33 439.477C781.36 441.865 780.678 444.208 779.372 446.209C778.066 448.209 776.195 449.776 773.995 450.711C771.796 451.645 769.368 451.906 767.021 451.458C764.673 451.01 762.512 449.875 760.811 448.197C759.111 446.518 757.948 444.373 757.471 442.032C756.993 439.692 757.223 437.262 758.131 435.053C759.038 432.843 760.583 430.953 762.568 429.623C764.553 428.293 766.889 427.582 769.278 427.582C770.851 427.572 772.411 427.872 773.867 428.465C775.324 429.057 776.65 429.93 777.769 431.035C778.888 432.14 779.779 433.454 780.39 434.902C781.001 436.35 781.32 437.905 781.33 439.477Z" fill="#B4CFFE"/>
<path d="M125.051 246.433C125.051 247.915 124.611 249.364 123.787 250.596C122.963 251.829 121.792 252.79 120.422 253.357C119.052 253.924 117.544 254.072 116.089 253.783C114.635 253.494 113.299 252.78 112.25 251.732C111.201 250.684 110.487 249.349 110.198 247.895C109.908 246.441 110.057 244.934 110.624 243.565C111.192 242.195 112.153 241.025 113.386 240.202C114.619 239.378 116.069 238.938 117.552 238.938C119.541 238.938 121.448 239.728 122.855 241.134C124.261 242.539 125.051 244.445 125.051 246.433Z" fill="#B4CFFE"/>
<path d="M256.365 168.213H682.636C687.116 168.213 691.413 169.992 694.582 173.158C697.75 176.324 699.53 180.619 699.53 185.097V454.455H239.471V185.097C239.471 180.619 241.251 176.324 244.419 173.158C247.587 169.992 251.884 168.213 256.365 168.213Z" fill="#10699D"/>
<g style="mix-blend-mode:soft-light">
<path d="M542.474 445.633H396.516C396.112 445.635 395.712 445.556 395.338 445.402C394.964 445.248 394.625 445.022 394.339 444.736C394.053 444.451 393.827 444.111 393.673 443.738C393.519 443.365 393.44 442.964 393.442 442.56C393.44 442.156 393.519 441.755 393.673 441.381C393.826 441.007 394.053 440.667 394.338 440.381C394.624 440.094 394.963 439.867 395.337 439.712C395.711 439.557 396.111 439.477 396.516 439.477H542.474C543.292 439.477 544.077 439.802 544.655 440.38C545.234 440.958 545.559 441.743 545.559 442.56C545.559 442.965 545.479 443.365 545.324 443.739C545.169 444.112 544.941 444.452 544.655 444.737C544.368 445.022 544.028 445.249 543.654 445.402C543.279 445.556 542.878 445.635 542.474 445.633Z" fill="white"/>
</g>
<path d="M252.476 174.145H686.514C687.892 174.145 689.213 174.692 690.188 175.665C691.162 176.639 691.709 177.96 691.709 179.337V426.48C691.709 427.162 691.575 427.837 691.314 428.467C691.053 429.097 690.67 429.669 690.188 430.152C689.705 430.634 689.132 431.016 688.502 431.277C687.872 431.538 687.196 431.672 686.514 431.672H252.476C251.101 431.672 249.782 431.127 248.81 430.155C247.838 429.183 247.291 427.865 247.291 426.491V179.337C247.29 178.656 247.423 177.981 247.683 177.351C247.943 176.721 248.324 176.148 248.806 175.666C249.288 175.184 249.86 174.801 250.489 174.54C251.119 174.279 251.794 174.145 252.476 174.145Z" fill="#0C4982"/>
<path d="M682.775 178.362H256.215C253.706 178.362 251.673 180.395 251.673 182.902V423.471C251.673 425.978 253.706 428.01 256.215 428.01H682.775C685.284 428.01 687.317 425.978 687.317 423.471V182.902C687.317 180.395 685.284 178.362 682.775 178.362Z" fill="white"/>
<path d="M400.116 338.281H320.8C317.203 338.281 314.287 341.196 314.287 344.791V393.076C314.287 396.671 317.203 399.585 320.8 399.585H400.116C403.713 399.585 406.629 396.671 406.629 393.076V344.791C406.629 341.196 403.713 338.281 400.116 338.281Z" fill="#FFA557"/>
<path d="M687.317 178.362H420.191V428.01H687.317V178.362Z" fill="#FFA557"/>
<g style="mix-blend-mode:soft-light">
<path d="M560.728 402.797H438.456C437.711 402.797 436.997 402.502 436.471 401.976C435.945 401.449 435.649 400.736 435.649 399.992C435.649 399.248 435.945 398.535 436.471 398.009C436.997 397.483 437.711 397.187 438.456 397.187H560.728C561.471 397.19 562.184 397.486 562.709 398.012C563.235 398.537 563.532 399.249 563.535 399.992C563.535 400.736 563.239 401.449 562.713 401.976C562.186 402.502 561.472 402.797 560.728 402.797Z" fill="white"/>
</g>
<g style="mix-blend-mode:soft-light">
<path d="M560.728 417.508H438.456C437.711 417.508 436.997 417.212 436.471 416.686C435.945 416.16 435.649 415.446 435.649 414.703C435.649 413.959 435.945 413.245 436.471 412.719C436.997 412.193 437.711 411.897 438.456 411.897H560.728C561.472 411.897 562.186 412.193 562.713 412.719C563.239 413.245 563.535 413.959 563.535 414.703C563.535 415.446 563.239 416.16 562.713 416.686C562.186 417.212 561.472 417.508 560.728 417.508Z" fill="white"/>
</g>
<g style="mix-blend-mode:soft-light">
<path d="M638.586 202.44H544.863C541.638 202.44 539.024 205.053 539.024 208.275V239.762C539.024 242.985 541.638 245.597 544.863 245.597H638.586C641.811 245.597 644.425 242.985 644.425 239.762V208.275C644.425 205.053 641.811 202.44 638.586 202.44Z" fill="white"/>
</g>
<path d="M306.253 192.612H269.627C266.462 192.612 263.896 195.177 263.896 198.34V230.973C263.896 234.136 266.462 236.701 269.627 236.701H306.253C309.418 236.701 311.984 234.136 311.984 230.973V198.34C311.984 195.177 309.418 192.612 306.253 192.612Z" fill="#FFA557"/>
<path d="M307.817 252.321H265.428C264.581 252.321 263.896 253.007 263.896 253.852V253.863C263.896 254.709 264.581 255.394 265.428 255.394H307.817C308.663 255.394 309.349 254.709 309.349 253.863V253.852C309.349 253.007 308.663 252.321 307.817 252.321Z" fill="#DEE9FE"/>
<path d="M329.767 244.355H265.428C264.581 244.355 263.896 245.041 263.896 245.886V245.897C263.896 246.743 264.581 247.428 265.428 247.428H329.767C330.613 247.428 331.299 246.743 331.299 245.897V245.886C331.299 245.041 330.613 244.355 329.767 244.355Z" fill="#DEE9FE"/>
<path d="M212.026 454.455H729.974V458.631C729.974 464.309 727.717 469.756 723.699 473.771C719.681 477.787 714.232 480.043 708.549 480.043H233.408C227.726 480.043 222.276 477.787 218.258 473.771C214.24 469.756 211.983 464.309 211.983 458.631V454.455H212.026Z" fill="#0C4982"/>
<path d="M565.623 70.3682H364.507C356.775 70.3682 350.506 76.6331 350.506 84.3612V371.599C350.506 379.327 356.775 385.592 364.507 385.592H565.623C573.356 385.592 579.625 379.327 579.625 371.599V84.3612C579.625 76.6331 573.356 70.3682 565.623 70.3682Z" fill="#1B87C6"/>
<path d="M350.506 371.599C350.506 375.31 351.981 378.869 354.607 381.494C357.233 384.118 360.794 385.592 364.507 385.592H565.623C569.337 385.592 572.898 384.118 575.524 381.494C578.15 378.869 579.625 375.31 579.625 371.599H350.506Z" fill="#ABD7FF"/>
<path d="M456.677 378.59C456.68 379.087 456.534 379.572 456.259 379.986C455.985 380.4 455.593 380.723 455.135 380.913C454.676 381.104 454.172 381.155 453.684 381.059C453.197 380.962 452.749 380.723 452.398 380.372C452.047 380.021 451.808 379.574 451.712 379.087C451.615 378.6 451.666 378.095 451.857 377.637C452.048 377.179 452.371 376.788 452.785 376.513C453.199 376.239 453.685 376.094 454.181 376.096C454.843 376.096 455.478 376.359 455.946 376.826C456.415 377.294 456.677 377.929 456.677 378.59Z" fill="white"/>
<path d="M467.572 378.59C467.574 379.086 467.429 379.572 467.155 379.985C466.881 380.398 466.49 380.721 466.032 380.912C465.574 381.104 465.07 381.155 464.583 381.059C464.096 380.964 463.648 380.726 463.297 380.376C462.945 380.026 462.705 379.58 462.608 379.094C462.51 378.607 462.559 378.103 462.748 377.645C462.938 377.186 463.259 376.794 463.672 376.519C464.084 376.243 464.569 376.096 465.065 376.096C465.728 376.096 466.364 376.358 466.834 376.826C467.304 377.293 467.569 377.928 467.572 378.59Z" fill="white"/>
<path d="M478.499 378.59C478.499 379.084 478.352 379.566 478.078 379.976C477.804 380.386 477.414 380.706 476.958 380.895C476.502 381.084 476 381.133 475.516 381.037C475.032 380.941 474.587 380.703 474.238 380.354C473.889 380.005 473.651 379.561 473.555 379.077C473.458 378.593 473.508 378.091 473.697 377.636C473.886 377.18 474.206 376.79 474.616 376.516C475.027 376.242 475.509 376.096 476.003 376.096C476.665 376.096 477.3 376.359 477.768 376.826C478.236 377.294 478.499 377.929 478.499 378.59Z" fill="white"/>
<path d="M491.575 159C484.962 159 479.805 157.174 476.102 153.521C472.443 149.868 470.614 144.654 470.614 137.876V112H481.326V137.48C481.326 145.754 484.764 149.89 491.641 149.89C494.991 149.89 497.548 148.9 499.311 146.92C501.074 144.896 501.956 141.749 501.956 137.48V112H512.536V137.876C512.536 144.654 510.684 149.868 506.981 153.521C503.322 157.174 498.187 159 491.575 159Z" fill="white"/>
<path d="M551.635 158.208L540.46 142.167L529.484 158.208H517.185L534.311 134.708L518.045 112H530.211L540.857 126.985L551.304 112H562.876L546.742 134.312L564 158.208H551.635Z" fill="white"/>
<path d="M394.961 159C388.349 159 383.191 157.174 379.488 153.521C375.829 149.868 374 144.654 374 137.876V112H384.712V137.48C384.712 145.754 388.15 149.89 395.027 149.89C398.377 149.89 400.934 148.9 402.697 146.92C404.46 144.896 405.342 141.749 405.342 137.48V112H415.922V137.876C415.922 144.654 414.07 149.868 410.367 153.521C406.709 157.174 401.573 159 394.961 159Z" fill="white"/>
<path d="M426.507 112H437.219V158.208H426.507V112Z" fill="white"/>
<path d="M574.547 83.6012C574.562 85.1457 574.118 86.6598 573.271 87.9519C572.424 89.244 571.213 90.256 569.791 90.8598C568.368 91.4636 566.798 91.6319 565.28 91.3436C563.762 91.0553 562.363 90.3232 561.261 89.2401C560.16 88.157 559.404 86.7715 559.091 85.2591C558.777 83.7466 558.92 82.1753 559.501 80.7438C560.081 79.3124 561.074 78.0854 562.352 77.218C563.631 76.3506 565.139 75.8819 566.684 75.8713C568.751 75.857 570.74 76.6627 572.214 78.1118C573.688 79.5608 574.527 81.5349 574.547 83.6012Z" fill="#FFA557"/>
<path d="M571.537 80.7963L569.608 78.8691L566.748 81.7277L563.888 78.8691L561.96 80.7963L564.82 83.6548L561.96 86.5134L563.888 88.4405L566.748 85.582L569.608 88.4405L571.537 86.5134L568.676 83.6548L571.537 80.7963Z" fill="#FEFEFE"/>
<path d="M555.394 252H378.606C373.853 252 370 255.837 370 260.571V322.429C370 327.163 373.853 331 378.606 331H555.394C560.147 331 564 327.163 564 322.429V260.571C564 255.837 560.147 252 555.394 252Z" fill="#53AAFA"/>
<path d="M394.995 275.511C399.829 275.511 403.747 271.594 403.747 266.764C403.747 261.933 399.829 258.017 394.995 258.017C390.161 258.017 386.243 261.933 386.243 266.764C386.243 271.594 390.161 275.511 394.995 275.511Z" fill="#FFA557"/>
<path d="M544.659 269.034H412.628C412.329 269.035 412.032 268.977 411.755 268.864C411.479 268.75 411.227 268.583 411.015 268.373C410.803 268.162 410.635 267.911 410.52 267.635C410.405 267.359 410.346 267.063 410.346 266.764C410.346 266.159 410.586 265.579 411.014 265.151C411.442 264.724 412.023 264.483 412.628 264.483H544.659C544.958 264.483 545.254 264.542 545.531 264.657C545.807 264.772 546.058 264.94 546.269 265.152C546.48 265.364 546.647 265.615 546.76 265.892C546.874 266.169 546.932 266.465 546.93 266.764C546.93 267.366 546.691 267.943 546.265 268.369C545.839 268.794 545.261 269.034 544.659 269.034Z" fill="white"/>
<path d="M398.363 296.515C402.825 294.656 404.935 289.535 403.076 285.076C401.217 280.617 396.093 278.508 391.631 280.366C387.169 282.224 385.059 287.345 386.918 291.805C388.777 296.264 393.901 298.373 398.363 296.515Z" fill="#FFA557"/>
<path d="M544.659 290.724H412.628C412.329 290.726 412.032 290.668 411.755 290.555C411.479 290.441 411.227 290.274 411.015 290.063C410.803 289.853 410.635 289.602 410.52 289.326C410.405 289.05 410.346 288.754 410.346 288.455C410.346 287.85 410.586 287.27 411.014 286.842C411.442 286.415 412.023 286.174 412.628 286.174H544.659C544.958 286.174 545.254 286.233 545.531 286.348C545.807 286.463 546.058 286.631 546.269 286.843C546.48 287.055 546.647 287.306 546.76 287.583C546.874 287.859 546.932 288.156 546.93 288.455C546.93 288.753 546.871 289.048 546.757 289.323C546.643 289.599 546.476 289.849 546.265 290.06C546.054 290.27 545.804 290.438 545.528 290.552C545.253 290.666 544.957 290.724 544.659 290.724Z" fill="white"/>
<path d="M403.629 311.544C404.405 306.776 401.167 302.282 396.396 301.506C391.625 300.73 387.128 303.967 386.352 308.735C385.576 313.503 388.814 317.997 393.585 318.773C398.356 319.549 402.853 316.312 403.629 311.544Z" fill="#FFA557"/>
<path d="M544.659 312.415H412.628C412.329 312.417 412.032 312.359 411.755 312.246C411.479 312.132 411.227 311.965 411.015 311.754C410.803 311.543 410.635 311.293 410.52 311.017C410.405 310.741 410.346 310.445 410.346 310.146C410.346 309.541 410.586 308.961 411.014 308.533C411.442 308.106 412.023 307.865 412.628 307.865H544.659C544.958 307.865 545.254 307.924 545.531 308.039C545.807 308.154 546.058 308.322 546.269 308.534C546.48 308.746 546.647 308.997 546.76 309.274C546.874 309.55 546.932 309.847 546.93 310.146C546.93 310.748 546.691 311.325 546.265 311.751C545.839 312.176 545.261 312.415 544.659 312.415Z" fill="white"/>
<path d="M558.698 201H375.302C372.374 201 370 203.366 370 206.284V225.716C370 228.634 372.374 231 375.302 231H558.698C561.626 231 564 228.634 564 225.716V206.284C564 203.366 561.626 201 558.698 201Z" fill="#53AAFA"/>
<path d="M467.122 215.931H384.304C383.659 215.931 383.04 215.675 382.584 215.219C382.128 214.763 381.872 214.145 381.872 213.501C381.872 213.181 381.935 212.865 382.057 212.571C382.179 212.276 382.359 212.008 382.584 211.782C382.81 211.556 383.078 211.377 383.373 211.255C383.668 211.133 383.985 211.07 384.304 211.07H467.122C467.441 211.07 467.758 211.133 468.053 211.255C468.348 211.377 468.616 211.556 468.842 211.782C469.067 212.008 469.247 212.276 469.369 212.571C469.491 212.865 469.554 213.181 469.554 213.501C469.554 214.145 469.298 214.763 468.842 215.219C468.386 215.675 467.767 215.931 467.122 215.931Z" fill="white"/>
<path d="M549.201 221.969H383.983C382.817 221.969 381.872 222.913 381.872 224.078V224.42C381.872 225.585 382.817 226.53 383.983 226.53H549.201C550.367 226.53 551.312 225.585 551.312 224.42V224.078C551.312 222.913 550.367 221.969 549.201 221.969Z" fill="white"/>
<path d="M481.82 357.831H448.311C445.717 357.831 443.229 356.801 441.395 354.968C439.561 353.135 438.531 350.649 438.531 348.056C438.531 345.464 439.561 342.977 441.395 341.144C443.229 339.311 445.717 338.281 448.311 338.281H481.82C484.414 338.281 486.901 339.311 488.736 341.144C490.57 342.977 491.6 345.464 491.6 348.056C491.6 350.649 490.57 353.135 488.736 354.968C486.901 356.801 484.414 357.831 481.82 357.831Z" fill="#FFA557"/>
<path d="M562.221 175H371.779C370.796 175 370 175.895 370 177C370 178.105 370.796 179 371.779 179H562.221C563.204 179 564 178.105 564 177C564 175.895 563.204 175 562.221 175Z" fill="#B4CFFE"/>
<path d="M197.928 64.5654H121.816C115.29 64.5654 110 69.8525 110 76.3744V152.442C110 158.964 115.29 164.251 121.816 164.251H197.928C204.454 164.251 209.744 158.964 209.744 152.442V76.3744C209.744 69.8525 204.454 64.5654 197.928 64.5654Z" fill="#ABD7FF"/>
<path d="M205.47 74.9615C205.47 76.0203 205.156 77.0552 204.567 77.9355C203.978 78.8159 203.142 79.502 202.163 79.9072C201.184 80.3123 200.108 80.4183 199.068 80.2118C198.029 80.0052 197.075 79.4954 196.326 78.7467C195.577 77.9981 195.067 77.0443 194.86 76.0059C194.653 74.9675 194.76 73.8911 195.165 72.913C195.57 71.9348 196.257 71.0988 197.138 70.5106C198.019 69.9224 199.054 69.6084 200.113 69.6084C201.534 69.6084 202.896 70.1724 203.901 71.1763C204.905 72.1802 205.47 73.5418 205.47 74.9615Z" fill="#FFA557"/>
<path d="M203.392 73.0346L202.063 71.707L200.103 73.6663L198.132 71.707L196.803 73.0346L198.774 74.9938L196.803 76.9638L198.132 78.2914L200.103 76.3214L202.063 78.2914L203.392 76.9638L201.42 74.9938L203.392 73.0346Z" fill="#FEFEFE"/>
<path d="M188.047 142.572C203.61 127.019 203.61 101.802 188.047 86.2481C172.485 70.6946 147.253 70.6946 131.69 86.2481C116.128 101.802 116.128 127.019 131.69 142.572C147.253 158.126 172.485 158.126 188.047 142.572Z" fill="#1B87C6"/>
<path d="M169.979 100.881C169.979 102.886 169.384 104.846 168.27 106.514C167.155 108.181 165.57 109.481 163.717 110.248C161.863 111.015 159.823 111.216 157.855 110.825C155.888 110.434 154.08 109.468 152.661 108.05C151.242 106.632 150.276 104.826 149.885 102.859C149.493 100.892 149.694 98.8537 150.462 97.001C151.23 95.1484 152.53 93.565 154.198 92.4509C155.867 91.3368 157.828 90.7422 159.835 90.7422C162.525 90.7422 165.105 91.8104 167.008 93.7118C168.91 95.6132 169.979 98.192 169.979 100.881Z" fill="white"/>
<path d="M179.053 129.649H140.691C140.69 127.109 141.195 124.595 142.177 122.253C143.159 119.911 144.599 117.788 146.412 116.009C147.505 114.962 148.968 114.388 150.482 114.414H169.261C170.781 114.388 172.249 114.966 173.343 116.02C175.153 117.799 176.59 119.92 177.57 122.26C178.55 124.6 179.054 127.112 179.053 129.649Z" fill="white"/>
<path d="M221.249 109.811H314.309C320.233 109.811 330.088 109.811 330.088 124.585V196.938" stroke="#ABD7FF" stroke-width="2" stroke-miterlimit="10"/>
<path d="M334.223 196.937C334.225 196.119 333.984 195.319 333.531 194.638C333.078 193.957 332.433 193.426 331.678 193.112C330.922 192.797 330.091 192.714 329.288 192.872C328.485 193.03 327.747 193.423 327.168 194.001C326.589 194.578 326.194 195.314 326.033 196.116C325.873 196.918 325.954 197.75 326.267 198.506C326.579 199.261 327.109 199.907 327.79 200.362C328.47 200.817 329.27 201.059 330.088 201.059C331.183 201.059 332.233 200.625 333.008 199.853C333.783 199.08 334.22 198.031 334.223 196.937Z" fill="#ABD7FF"/>
<path d="M226.091 109.81C226.093 108.993 225.853 108.192 225.4 107.511C224.947 106.83 224.302 106.299 223.546 105.985C222.791 105.67 221.959 105.587 221.156 105.745C220.353 105.903 219.616 106.296 219.036 106.874C218.457 107.451 218.062 108.187 217.902 108.989C217.741 109.791 217.822 110.623 218.135 111.379C218.448 112.134 218.978 112.78 219.658 113.235C220.338 113.69 221.138 113.932 221.956 113.932C223.051 113.932 224.101 113.498 224.876 112.726C225.652 111.953 226.088 110.904 226.091 109.81Z" fill="#ABD7FF"/>
<path d="M781.887 44.3203H659.668C651.267 44.3203 644.457 51.1269 644.457 59.5232V199.903C644.457 208.3 651.267 215.106 659.668 215.106H781.887C790.288 215.106 797.099 208.3 797.099 199.903V59.5232C797.099 51.1269 790.288 44.3203 781.887 44.3203Z" fill="#ABD7FF"/>
<path d="M781.255 75.0254H660.311C656.288 75.0254 653.027 78.2849 653.027 82.3056V159.284C653.027 163.304 656.288 166.564 660.311 166.564H781.255C785.278 166.564 788.539 163.304 788.539 159.284V82.3056C788.539 78.2849 785.278 75.0254 781.255 75.0254Z" fill="#1B87C6"/>
<path d="M681.008 155.505L682.507 154.916" stroke="#FFA557" stroke-width="0.75" stroke-linecap="round" stroke-linejoin="round"/>
<path d="M685.571 153.717L700.976 147.657L720.783 155.505L741.63 147.657L757.548 154.263" stroke="#FFA557" stroke-width="0.75" stroke-linecap="round" stroke-linejoin="round" stroke-dasharray="3.07 3.07"/>
<path d="M759.07 154.895L760.548 155.505" stroke="#FFA557" stroke-width="0.75" stroke-linecap="round" stroke-linejoin="round"/>
<path d="M741.63 108.879C741.63 120.388 720.783 150.558 720.783 150.558C720.783 150.558 699.926 120.388 699.926 108.879C700.049 103.433 702.3 98.2526 706.197 94.4452C710.094 90.6377 715.328 88.5059 720.778 88.5059C726.227 88.5059 731.461 90.6377 735.358 94.4452C739.255 98.2526 741.506 103.433 741.63 108.879Z" fill="white"/>
<path d="M730.897 116.342C735.083 110.744 733.935 102.814 728.333 98.6302C722.732 94.4465 714.797 95.5935 710.611 101.192C706.425 106.791 707.572 114.721 713.174 118.904C718.776 123.088 726.711 121.941 730.897 116.342Z" fill="#1B87C6"/>
<path d="M691.345 129.895C691.345 135.601 681.008 150.558 681.008 150.558C681.008 150.558 670.67 135.569 670.67 129.895C670.67 127.155 671.759 124.527 673.698 122.59C675.637 120.652 678.266 119.563 681.008 119.563C683.749 119.563 686.379 120.652 688.317 122.59C690.256 124.527 691.345 127.155 691.345 129.895Z" fill="#ABD7FF"/>
<path d="M681.008 136.137C684.475 136.137 687.285 133.328 687.285 129.863C687.285 126.398 684.475 123.589 681.008 123.589C677.541 123.589 674.73 126.398 674.73 129.863C674.73 133.328 677.541 136.137 681.008 136.137Z" fill="#1B87C6"/>
<path d="M770.885 129.895C770.885 135.601 760.548 150.558 760.548 150.558C760.548 150.558 750.21 135.569 750.21 129.895C750.21 127.155 751.299 124.527 753.238 122.59C755.177 120.652 757.806 119.563 760.548 119.563C763.289 119.563 765.919 120.652 767.858 122.59C769.796 124.527 770.885 127.155 770.885 129.895Z" fill="#ABD7FF"/>
<path d="M760.548 136.137C764.015 136.137 766.825 133.328 766.825 129.863C766.825 126.398 764.015 123.589 760.548 123.589C757.081 123.589 754.27 126.398 754.27 129.863C754.27 133.328 757.081 136.137 760.548 136.137Z" fill="#1B87C6"/>
<path d="M787.994 60.3619C790.693 59.1372 791.887 55.9578 790.662 53.2605C789.437 50.5631 786.255 49.3693 783.556 50.594C780.858 51.8187 779.663 54.9982 780.888 57.6955C782.114 60.3928 785.295 61.5866 787.994 60.3619Z" fill="#FFA557"/>
<path d="M789.075 53.5063L787.747 52.1787L785.776 54.1487L783.805 52.1787L782.476 53.5063L784.447 55.4762L782.476 57.4462L783.805 58.763L785.776 56.7931L787.747 58.763L789.075 57.4462L787.104 55.4762L789.075 53.5063Z" fill="#FEFEFE"/>
<path d="M743.729 66.2358L655.79 66.0859C655.056 66.0831 654.354 65.7897 653.835 65.2699C653.317 64.7502 653.027 64.0465 653.027 63.313C653.025 62.9484 653.096 62.5872 653.235 62.2502C653.374 61.9131 653.578 61.6068 653.836 61.3491C654.094 61.0913 654.4 60.8871 654.738 60.7483C655.075 60.6094 655.436 60.5386 655.801 60.5401L743.74 60.6899C744.476 60.6899 745.182 60.9821 745.702 61.5021C746.222 62.0221 746.515 62.7274 746.515 63.4629C746.512 64.1993 746.217 64.9045 745.695 65.4243C745.173 65.944 744.466 66.2358 743.729 66.2358Z" fill="white"/>
<path d="M785.861 180.397L655.694 180.236C655.344 180.236 654.997 180.167 654.673 180.033C654.35 179.899 654.056 179.703 653.808 179.455C653.56 179.208 653.364 178.914 653.23 178.591C653.096 178.267 653.027 177.921 653.027 177.57V177.367C653.027 176.657 653.309 175.976 653.811 175.474C654.313 174.972 654.994 174.69 655.705 174.69L785.861 174.84C786.571 174.843 787.25 175.126 787.752 175.627C788.254 176.129 788.537 176.808 788.54 177.517V177.72C788.54 178.072 788.47 178.42 788.336 178.745C788.201 179.069 788.004 179.364 787.755 179.613C787.506 179.861 787.211 180.059 786.886 180.193C786.561 180.328 786.213 180.397 785.861 180.397Z" fill="white"/>
<path d="M698.287 193.49L655.694 193.351C654.986 193.348 654.307 193.065 653.807 192.563C653.307 192.062 653.027 191.383 653.027 190.675C653.027 189.965 653.309 189.284 653.811 188.782C654.313 188.28 654.994 187.998 655.705 187.998L698.308 188.137C699.016 188.143 699.693 188.427 700.192 188.928C700.691 189.429 700.973 190.107 700.976 190.814C700.973 191.525 700.688 192.205 700.184 192.707C699.68 193.209 698.998 193.49 698.287 193.49Z" fill="white"/>
<path d="M609.523 159.477V215.599" stroke="white" stroke-width="2" stroke-miterlimit="10"/>
<path d="M631.687 104.297H616.904C609.555 104.297 609.555 108.729 609.555 111.417V178.363" stroke="#ABD7FF" stroke-width="2" stroke-miterlimit="10"/>
<path d="M609.523 219.72C608.704 219.722 607.903 219.482 607.222 219.028C606.54 218.575 606.009 217.93 605.694 217.174C605.38 216.419 605.297 215.587 605.456 214.784C605.616 213.981 606.01 213.244 606.589 212.665C607.168 212.087 607.905 211.693 608.708 211.534C609.511 211.375 610.344 211.458 611.1 211.772C611.856 212.086 612.502 212.617 612.955 213.298C613.409 213.98 613.65 214.78 613.647 215.598C613.647 216.692 613.213 217.74 612.439 218.513C611.666 219.286 610.617 219.72 609.523 219.72Z" fill="white"/>
<path d="M631.687 109.2C630.869 109.2 630.07 108.957 629.39 108.503C628.71 108.049 628.18 107.404 627.867 106.649C627.554 105.894 627.472 105.063 627.632 104.261C627.791 103.459 628.185 102.723 628.763 102.145C629.342 101.567 630.078 101.173 630.881 101.014C631.683 100.855 632.514 100.936 633.27 101.249C634.025 101.562 634.671 102.092 635.125 102.771C635.58 103.451 635.822 104.25 635.822 105.067C635.824 105.61 635.718 106.148 635.51 106.65C635.303 107.152 634.999 107.608 634.614 107.993C634.23 108.377 633.774 108.681 633.271 108.888C632.769 109.095 632.231 109.201 631.687 109.2Z" fill="#ABD7FF"/>
<path d="M290.388 266.058H134.36C129.669 266.058 125.865 269.859 125.865 274.548V374.801C125.865 379.49 129.669 383.291 134.36 383.291H290.388C295.079 383.291 298.883 379.49 298.883 374.801V274.548C298.883 269.859 295.079 266.058 290.388 266.058Z" fill="#ABD7FF"/>
<path d="M285.417 289.943H139.342C136.537 289.943 134.264 292.215 134.264 295.018V371.364C134.264 374.167 136.537 376.439 139.342 376.439H285.417C288.221 376.439 290.495 374.167 290.495 371.364V295.018C290.495 292.215 288.221 289.943 285.417 289.943Z" fill="#1B87C6"/>
<path d="M264.313 302.298H272.337V335.487C272.337 336.552 271.914 337.573 271.16 338.326C270.407 339.079 269.385 339.502 268.32 339.502C267.793 339.502 267.271 339.398 266.784 339.196C266.297 338.994 265.855 338.698 265.483 338.325C265.111 337.953 264.816 337.51 264.615 337.023C264.415 336.536 264.312 336.014 264.313 335.487V302.298Z" fill="#ABD7FF"/>
<path d="M241.989 302.298H250.023V332.479C250.023 333.544 249.6 334.565 248.846 335.318C248.093 336.071 247.071 336.494 246.006 336.494C244.94 336.494 243.918 336.071 243.165 335.318C242.412 334.565 241.989 333.544 241.989 332.479V302.298Z" fill="#ABD7FF"/>
<path d="M219.674 313.004H227.698V351.546C227.7 352.073 227.597 352.594 227.396 353.08C227.195 353.567 226.9 354.009 226.528 354.381C226.155 354.753 225.713 355.048 225.227 355.249C224.74 355.449 224.218 355.552 223.692 355.55C223.165 355.552 222.642 355.449 222.155 355.249C221.668 355.048 221.225 354.753 220.852 354.381C220.479 354.01 220.182 353.568 219.98 353.081C219.778 352.595 219.674 352.073 219.674 351.546V313.004Z" fill="#ABD7FF"/>
<path d="M197.35 302.298H205.384V364.94C205.384 366.005 204.961 367.026 204.207 367.779C203.454 368.532 202.432 368.955 201.367 368.955C200.301 368.955 199.28 368.532 198.526 367.779C197.773 367.026 197.35 366.005 197.35 364.94V302.298Z" fill="#ABD7FF"/>
<path d="M175.036 302.298H183.07V356.9C183.07 357.964 182.647 358.986 181.893 359.739C181.14 360.492 180.118 360.914 179.053 360.914C177.987 360.914 176.965 360.492 176.212 359.739C175.459 358.986 175.036 357.964 175.036 356.9V302.298Z" fill="#ABD7FF"/>
<path d="M152.721 302.298H160.745V334.031C160.745 335.096 160.322 336.117 159.568 336.87C158.815 337.623 157.793 338.046 156.728 338.046C156.201 338.046 155.679 337.942 155.192 337.74C154.705 337.538 154.263 337.242 153.891 336.869C153.519 336.496 153.224 336.054 153.023 335.567C152.823 335.08 152.72 334.558 152.721 334.031V302.298Z" fill="#ABD7FF"/>
<path d="M160.745 368.933H152.721V335.744C152.724 334.684 153.148 333.668 153.899 332.919C154.65 332.171 155.667 331.75 156.728 331.75C157.793 331.75 158.815 332.173 159.568 332.926C160.322 333.679 160.745 334.701 160.745 335.765V368.933Z" fill="white"/>
<path d="M183.07 368.933H175.036V349.459C175.036 348.394 175.459 347.373 176.212 346.62C176.965 345.867 177.987 345.444 179.053 345.444C180.118 345.444 181.14 345.867 181.893 346.62C182.647 347.373 183.07 348.394 183.07 349.459V368.933Z" fill="white"/>
<path d="M205.384 368.934H197.35V319.685C197.355 318.624 197.781 317.608 198.534 316.86C199.287 316.111 200.305 315.691 201.367 315.691C202.432 315.691 203.454 316.114 204.207 316.867C204.961 317.62 205.384 318.641 205.384 319.706V368.934Z" fill="white"/>
<path d="M227.698 368.934H219.674V306.302C219.674 305.775 219.778 305.254 219.98 304.767C220.182 304.281 220.479 303.839 220.852 303.467C221.225 303.095 221.668 302.8 222.155 302.6C222.642 302.399 223.165 302.296 223.692 302.298C224.218 302.296 224.74 302.399 225.227 302.6C225.713 302.801 226.155 303.095 226.528 303.468C226.9 303.84 227.195 304.282 227.396 304.768C227.597 305.254 227.7 305.776 227.698 306.302V368.934Z" fill="white"/>
<path d="M250.023 368.934H241.989V325.038C241.991 324.51 242.098 323.987 242.304 323.501C242.509 323.014 242.808 322.572 243.184 322.202C243.56 321.831 244.006 321.537 244.496 321.339C244.985 321.14 245.509 321.04 246.038 321.045C247.103 321.045 248.125 321.468 248.878 322.22C249.632 322.973 250.055 323.995 250.055 325.059L250.023 368.934Z" fill="white"/>
<path d="M272.337 368.934H264.313V337.2C264.312 336.674 264.415 336.152 264.615 335.665C264.816 335.178 265.111 334.735 265.483 334.362C265.855 333.989 266.297 333.693 266.784 333.491C267.271 333.289 267.793 333.186 268.32 333.186C269.385 333.186 270.407 333.609 271.16 334.361C271.914 335.114 272.337 336.136 272.337 337.2V368.934Z" fill="white"/>
<path d="M295.862 274.686C295.862 275.745 295.548 276.78 294.959 277.66C294.37 278.54 293.534 279.227 292.555 279.632C291.576 280.037 290.499 280.143 289.46 279.936C288.421 279.73 287.467 279.22 286.718 278.471C285.969 277.723 285.459 276.769 285.252 275.73C285.045 274.692 285.151 273.616 285.557 272.638C285.962 271.659 286.649 270.823 287.53 270.235C288.41 269.647 289.446 269.333 290.505 269.333C291.926 269.333 293.288 269.897 294.293 270.901C295.297 271.905 295.862 273.266 295.862 274.686Z" fill="#FFA557"/>
<path d="M293.794 272.759L292.466 271.432L290.495 273.402L288.524 271.432L287.206 272.759L289.166 274.729L287.206 276.688L288.524 278.016L290.495 276.046L292.466 278.016L293.794 276.688L291.823 274.729L293.794 272.759Z" fill="#FEFEFE"/>
<path d="M252.883 276.046H137.188C135.573 276.046 134.264 277.354 134.264 278.969C134.264 280.583 135.573 281.891 137.188 281.891H252.883C254.498 281.891 255.808 280.583 255.808 278.969C255.808 277.354 254.498 276.046 252.883 276.046Z" fill="#DEE9FE"/>
<path d="M203.006 390.688V405.27C203.006 411.694 207.43 412.818 210.119 412.818H350.067" stroke="#ABD7FF" stroke-width="2" stroke-miterlimit="10"/>
<path d="M354.234 412.818C354.234 413.636 353.992 414.435 353.537 415.114C353.083 415.794 352.437 416.323 351.681 416.636C350.926 416.949 350.094 417.031 349.292 416.871C348.49 416.712 347.753 416.318 347.175 415.74C346.597 415.162 346.203 414.426 346.043 413.624C345.884 412.823 345.966 411.992 346.279 411.237C346.592 410.482 347.122 409.836 347.802 409.382C348.482 408.928 349.281 408.686 350.099 408.686C350.642 408.684 351.181 408.79 351.683 408.997C352.185 409.204 352.642 409.509 353.026 409.893C353.41 410.277 353.715 410.733 353.922 411.235C354.129 411.737 354.235 412.275 354.234 412.818Z" fill="#ABD7FF"/>
<path d="M207.13 390.688C207.132 391.507 206.891 392.307 206.438 392.988C205.984 393.67 205.338 394.201 204.582 394.515C203.826 394.829 202.994 394.912 202.191 394.753C201.388 394.594 200.65 394.2 200.071 393.621C199.492 393.043 199.098 392.305 198.939 391.503C198.78 390.7 198.863 389.868 199.177 389.113C199.491 388.357 200.023 387.712 200.705 387.258C201.386 386.805 202.187 386.564 203.006 386.566C204.1 386.566 205.149 387.001 205.922 387.774C206.696 388.547 207.13 389.595 207.13 390.688Z" fill="#ABD7FF"/>
<path d="M824.18 306.516H629.566C625.247 306.516 621.746 310.015 621.746 314.332V406.47C621.746 410.786 625.247 414.285 629.566 414.285H824.18C828.499 414.285 832 410.786 832 406.47V314.332C832 310.015 828.499 306.516 824.18 306.516Z" fill="#ABD7FF"/>
<path d="M823.398 320.862C826.362 320.862 828.765 318.461 828.765 315.499C828.765 312.536 826.362 310.135 823.398 310.135C820.434 310.135 818.031 312.536 818.031 315.499C818.031 318.461 820.434 320.862 823.398 320.862Z" fill="#FFA557"/>
<path d="M826.697 313.529L825.369 312.201L823.398 314.171L821.427 312.201L820.109 313.529L822.07 315.499L820.109 317.458L821.427 318.786L823.398 316.816L825.369 318.786L826.697 317.458L824.726 315.499L826.697 313.529Z" fill="#FEFEFE"/>
<path d="M662.796 319.406H635.083C633.03 319.406 631.366 321.07 631.366 323.121V350.818C631.366 352.87 633.03 354.533 635.083 354.533H662.796C664.849 354.533 666.514 352.87 666.514 350.818V323.121C666.514 321.07 664.849 319.406 662.796 319.406Z" fill="white"/>
<path d="M799.873 327.843H682.722C681.602 327.843 680.529 327.398 679.737 326.607C678.946 325.816 678.501 324.743 678.501 323.625C678.501 322.506 678.946 321.433 679.737 320.642C680.529 319.851 681.602 319.406 682.722 319.406H799.873C800.433 319.398 800.989 319.501 801.508 319.709C802.028 319.917 802.501 320.226 802.899 320.619C803.298 321.011 803.615 321.479 803.831 321.995C804.047 322.511 804.158 323.065 804.158 323.625C804.158 324.184 804.047 324.738 803.831 325.254C803.615 325.77 803.298 326.238 802.899 326.63C802.501 327.023 802.028 327.332 801.508 327.54C800.989 327.748 800.433 327.851 799.873 327.843Z" fill="white"/>
<path d="M746.9 340.787H681.297C680.555 340.787 679.844 340.492 679.32 339.968C678.796 339.444 678.501 338.734 678.501 337.993C678.5 337.625 678.571 337.26 678.711 336.92C678.851 336.58 679.056 336.27 679.316 336.01C679.576 335.749 679.885 335.542 680.224 335.401C680.564 335.26 680.929 335.187 681.297 335.188H746.9C747.268 335.187 747.633 335.26 747.973 335.401C748.312 335.542 748.621 335.749 748.881 336.01C749.141 336.27 749.346 336.58 749.486 336.92C749.626 337.26 749.697 337.625 749.696 337.993C749.696 338.359 749.624 338.723 749.483 339.062C749.343 339.401 749.137 339.709 748.877 339.968C748.617 340.228 748.309 340.434 747.97 340.574C747.631 340.715 747.267 340.787 746.9 340.787Z" fill="white"/>
<path d="M814.796 362.488H638.961C634.559 362.488 630.991 366.055 630.991 370.454V395.356C630.991 399.756 634.559 403.322 638.961 403.322H814.796C819.197 403.322 822.766 399.756 822.766 395.356V370.454C822.766 366.055 819.197 362.488 814.796 362.488Z" fill="#1B87C6"/>
<path d="M720.783 381.428V371.182C720.782 371.018 720.824 370.856 720.903 370.712C720.983 370.568 721.098 370.447 721.237 370.36C721.377 370.273 721.536 370.223 721.701 370.215C721.865 370.208 722.028 370.242 722.176 370.315L732.428 375.379C732.587 375.461 732.721 375.585 732.815 375.738C732.909 375.891 732.958 376.067 732.958 376.246C732.958 376.425 732.909 376.601 732.815 376.754C732.721 376.907 732.587 377.031 732.428 377.113L722.176 382.295C722.028 382.368 721.865 382.402 721.701 382.394C721.536 382.386 721.377 382.337 721.237 382.25C721.098 382.163 720.983 382.042 720.903 381.898C720.824 381.754 720.782 381.592 720.783 381.428Z" fill="#FFA557"/>
<path d="M750.596 379.929V372.595C750.596 372.477 750.627 372.36 750.685 372.257C750.743 372.154 750.826 372.067 750.927 372.005C751.027 371.942 751.143 371.907 751.261 371.902C751.379 371.896 751.497 371.921 751.603 371.974L758.93 375.593C759.045 375.651 759.142 375.74 759.209 375.849C759.277 375.959 759.312 376.085 759.312 376.214C759.312 376.342 759.277 376.469 759.209 376.578C759.142 376.688 759.045 376.777 758.93 376.835L751.667 380.593C751.556 380.665 751.427 380.704 751.295 380.705C751.163 380.706 751.033 380.67 750.921 380.601C750.808 380.531 750.718 380.431 750.661 380.312C750.603 380.193 750.581 380.06 750.596 379.929Z" fill="white"/>
<path d="M761.641 371.942H761.148C760.858 371.942 760.623 372.177 760.623 372.466V380.132C760.623 380.422 760.858 380.657 761.148 380.657H761.641C761.93 380.657 762.165 380.422 762.165 380.132V372.466C762.165 372.177 761.93 371.942 761.641 371.942Z" fill="white"/>
<path d="M703.118 379.929V372.595C703.118 372.477 703.087 372.36 703.029 372.257C702.972 372.154 702.888 372.067 702.787 372.005C702.687 371.942 702.572 371.907 702.453 371.902C702.335 371.896 702.217 371.921 702.111 371.974L694.784 375.646C694.669 375.704 694.572 375.793 694.505 375.903C694.438 376.012 694.402 376.138 694.402 376.267C694.402 376.396 694.438 376.522 694.505 376.632C694.572 376.741 694.669 376.83 694.784 376.888L702.111 380.603C702.221 380.659 702.344 380.684 702.467 380.676C702.59 380.668 702.709 380.628 702.811 380.56C702.914 380.491 702.996 380.396 703.05 380.286C703.104 380.175 703.127 380.052 703.118 379.929Z" fill="white"/>
<path d="M692.106 380.657H692.598C692.888 380.657 693.123 380.422 693.123 380.132V372.466C693.123 372.177 692.888 371.942 692.598 371.942H692.106C691.816 371.942 691.581 372.177 691.581 372.466V380.132C691.581 380.422 691.816 380.657 692.106 380.657Z" fill="white"/>
<path d="M645.828 390.892C645.828 391.044 645.783 391.193 645.698 391.32C645.613 391.447 645.493 391.546 645.352 391.604C645.211 391.662 645.056 391.678 644.906 391.648C644.756 391.618 644.619 391.545 644.511 391.437C644.403 391.329 644.33 391.192 644.3 391.042C644.27 390.893 644.285 390.738 644.344 390.597C644.402 390.456 644.501 390.336 644.628 390.251C644.755 390.166 644.904 390.121 645.056 390.121C645.261 390.121 645.457 390.202 645.602 390.347C645.747 390.491 645.828 390.688 645.828 390.892Z" fill="white"/>
<path d="M645.828 393.537C645.83 393.689 645.787 393.839 645.703 393.968C645.62 394.096 645.5 394.196 645.359 394.256C645.218 394.316 645.063 394.333 644.913 394.305C644.762 394.276 644.624 394.203 644.515 394.096C644.406 393.989 644.332 393.851 644.301 393.702C644.27 393.552 644.285 393.396 644.343 393.255C644.401 393.113 644.5 392.992 644.627 392.907C644.754 392.822 644.903 392.776 645.056 392.776C645.259 392.776 645.454 392.856 645.598 392.998C645.742 393.141 645.825 393.334 645.828 393.537Z" fill="white"/>
<path d="M641.704 390.121H639.186C638.725 390.121 638.351 390.495 638.351 390.956V393.472C638.351 393.933 638.725 394.307 639.186 394.307H641.704C642.165 394.307 642.539 393.933 642.539 393.472V390.956C642.539 390.495 642.165 390.121 641.704 390.121Z" fill="white"/>
<path d="M650.927 390.121H648.388C647.933 390.121 647.563 390.49 647.563 390.945V393.483C647.563 393.938 647.933 394.307 648.388 394.307H650.927C651.383 394.307 651.752 393.938 651.752 393.483V390.945C651.752 390.49 651.383 390.121 650.927 390.121Z" fill="white"/>
<path d="M809.515 390.892C809.515 391.044 809.469 391.193 809.385 391.32C809.3 391.447 809.179 391.546 809.038 391.604C808.897 391.662 808.742 391.678 808.593 391.648C808.443 391.618 808.306 391.545 808.198 391.437C808.09 391.329 808.017 391.192 807.987 391.042C807.957 390.893 807.972 390.738 808.031 390.597C808.089 390.456 808.188 390.336 808.315 390.251C808.442 390.166 808.591 390.121 808.743 390.121C808.948 390.121 809.144 390.202 809.289 390.347C809.433 390.491 809.515 390.688 809.515 390.892Z" fill="white"/>
<path d="M809.515 393.537C809.517 393.689 809.473 393.839 809.39 393.968C809.306 394.096 809.187 394.196 809.046 394.256C808.905 394.316 808.75 394.333 808.599 394.305C808.449 394.276 808.311 394.203 808.202 394.096C808.093 393.989 808.018 393.851 807.988 393.702C807.957 393.552 807.972 393.396 808.03 393.255C808.088 393.113 808.187 392.992 808.314 392.907C808.441 392.822 808.59 392.776 808.743 392.776C808.946 392.776 809.141 392.856 809.285 392.998C809.429 393.141 809.512 393.334 809.515 393.537Z" fill="white"/>
<path d="M805.347 390.121H802.83C802.369 390.121 801.994 390.495 801.994 390.956V393.472C801.994 393.933 802.369 394.307 802.83 394.307H805.347C805.809 394.307 806.183 393.933 806.183 393.472V390.956C806.183 390.495 805.809 390.121 805.347 390.121Z" fill="white"/>
<path d="M814.549 390.121H812.032C811.571 390.121 811.196 390.495 811.196 390.956V393.472C811.196 393.933 811.571 394.307 812.032 394.307H814.549C815.011 394.307 815.385 393.933 815.385 393.472V390.956C815.385 390.495 815.011 390.121 814.549 390.121Z" fill="white"/>
<path d="M795.974 391.962H657.783V392.787H795.974V391.962Z" fill="white"/>
<path d="M728.646 394.842C730.048 394.842 731.185 393.706 731.185 392.305C731.185 390.904 730.048 389.768 728.646 389.768C727.244 389.768 726.107 390.904 726.107 392.305C726.107 393.706 727.244 394.842 728.646 394.842Z" fill="white"/>
<path d="M688.281 271.571H595.586" stroke="white" stroke-width="2" stroke-miterlimit="10"/>
<path d="M742.658 293.701V279.29C742.658 271.571 738.223 271.571 735.545 271.571H687.339" stroke="#ABD7FF" stroke-width="2" stroke-miterlimit="10"/>
<path d="M591.451 271.571C591.451 270.754 591.694 269.955 592.148 269.275C592.602 268.596 593.248 268.066 594.004 267.753C594.759 267.44 595.591 267.358 596.393 267.518C597.195 267.677 597.932 268.071 598.51 268.649C599.088 269.227 599.482 269.963 599.642 270.765C599.801 271.567 599.719 272.397 599.407 273.153C599.094 273.908 598.564 274.553 597.884 275.007C597.204 275.461 596.404 275.704 595.586 275.704C595.043 275.704 594.505 275.597 594.004 275.389C593.502 275.181 593.046 274.877 592.662 274.493C592.278 274.11 591.974 273.654 591.766 273.153C591.558 272.651 591.451 272.114 591.451 271.571Z" fill="white"/>
<path d="M738.523 293.701C738.521 292.883 738.762 292.083 739.215 291.402C739.668 290.721 740.313 290.19 741.068 289.875C741.823 289.561 742.655 289.477 743.458 289.636C744.261 289.794 744.999 290.187 745.578 290.764C746.157 291.342 746.552 292.078 746.713 292.88C746.873 293.682 746.792 294.513 746.479 295.269C746.167 296.025 745.637 296.671 744.956 297.126C744.276 297.58 743.476 297.823 742.658 297.823C741.563 297.823 740.513 297.389 739.738 296.616C738.963 295.844 738.526 294.795 738.523 293.701Z" fill="#ABD7FF"/>
</g>
<defs>
<clipPath id="clip0_1077:5883">
<rect width="722" height="461" fill="white" transform="translate(110 19)"/>
</clipPath>
</defs>
</svg>
